<svg width="16" height="24" viewBox="0 0 16 24" fill="none" xmlns="http://www.w3.org/2000/svg">
<path d="M3.59155 18.9401V8.93871C3.59155 7.58537 4.1291 6.28746 5.08593 5.3305C6.04276 4.37355 7.34051 3.83594 8.69367 3.83594H10.7345" stroke="#6F6F6F" stroke-width="2.5"/>
<path d="M3.59155 18.9418V15.8801C3.59155 14.5268 4.1291 13.2289 5.08593 12.2719C6.04276 11.315 7.34051 10.7773 8.69367 10.7773H10.7345" stroke="#6F6F6F" stroke-width="2.5"/>
<path d="M12.1632 5.674C13.1776 5.674 13.9999 4.85154 13.9999 3.837C13.9999 2.82245 13.1776 2 12.1632 2C11.1488 2 10.3264 2.82245 10.3264 3.837C10.3264 4.85154 11.1488 5.674 12.1632 5.674Z" stroke="#6F6F6F" stroke-width="2.5"/>
<path d="M12.1632 12.6154C13.1776 12.6154 13.9999 11.7929 13.9999 10.7784C13.9999 9.76386 13.1776 8.94141 12.1632 8.94141C11.1488 8.94141 10.3264 9.76386 10.3264 10.7784C10.3264 11.7929 11.1488 12.6154 12.1632 12.6154Z" stroke="#6F6F6F" stroke-width="2.5"/>
<path d="M3.59165 22.0002C4.60606 22.0002 5.42841 21.1777 5.42841 20.1632C5.42841 19.1486 4.60606 18.3262 3.59165 18.3262C2.57723 18.3262 1.75488 19.1486 1.75488 20.1632C1.75488 21.1777 2.57723 22.0002 3.59165 22.0002Z" stroke="#6F6F6F" stroke-width="2.5"/>
</svg>
