<svg width="17" height="20" viewBox="0 0 17 20" fill="none" xmlns="http://www.w3.org/2000/svg">
<path d="M16.9314 4.42782C16.6696 2.2789 14.9732 0.585406 12.9623 0.257251C12.623 0.201802 11.3376 0 8.35989 0H8.33765C5.35916 0 4.72014 0.201802 4.38088 0.257251C2.42595 0.576314 0.640663 2.098 0.207516 4.27238C-0.000822073 5.34319 -0.0230559 6.53037 0.0156474 7.61935C0.0708199 9.18104 0.0815251 10.74 0.209987 12.2953C0.298796 13.3285 0.453721 14.3534 0.673602 15.3623C1.08534 17.2258 2.75205 18.7766 4.38499 19.4093C6.1333 20.0691 8.01345 20.1786 9.81497 19.7256C10.0131 19.6747 10.2091 19.6156 10.4029 19.5483C10.8402 19.3947 11.3532 19.2229 11.7304 18.9211C11.7355 18.9169 11.7398 18.9114 11.7428 18.9051C11.7458 18.8988 11.7474 18.8919 11.7476 18.8848V17.3776C11.7475 17.371 11.7461 17.3644 11.7434 17.3585C11.7408 17.3525 11.7369 17.3473 11.7322 17.3432C11.7274 17.3391 11.7219 17.3363 11.7161 17.3348C11.7102 17.3334 11.7041 17.3334 11.6982 17.3349C10.544 17.6393 9.36128 17.7918 8.17461 17.7894C6.1324 17.7894 5.58314 16.7195 5.42585 16.2741C5.29943 15.8891 5.21914 15.4876 5.18704 15.0796C5.18672 15.0728 5.18787 15.0659 5.19037 15.0597C5.19288 15.0534 5.19672 15.0479 5.20152 15.0435C5.20634 15.0392 5.21202 15.0362 5.21808 15.0347C5.22415 15.0332 5.23044 15.0334 5.23646 15.0351C6.37144 15.3374 7.5349 15.4899 8.70246 15.4896C8.98326 15.4896 9.26323 15.4896 9.54405 15.4814C10.7183 15.4451 11.956 15.3787 13.1113 15.1296C13.1401 15.1233 13.169 15.1178 13.1937 15.1096C15.016 14.7233 16.7502 13.5107 16.9265 10.44C16.9331 10.3191 16.9495 9.17377 16.9495 9.04832C16.9504 8.62201 17.0739 6.02404 16.9314 4.42782ZM14.1267 12.0899H12.2105V6.90851C12.2105 5.8177 11.7987 5.26138 10.9612 5.26138C10.0406 5.26138 9.57945 5.91949 9.57945 7.2194V10.0555H7.67476V7.2194C7.67476 5.91949 7.2128 5.26138 6.29216 5.26138C5.45962 5.26138 5.04376 5.8177 5.04293 6.90851V12.0899H3.12837V6.75124C3.12837 5.66042 3.38063 4.79383 3.88514 4.15146C4.40557 3.51062 5.08824 3.18156 5.93559 3.18156C6.91633 3.18156 7.65747 3.59787 8.15154 4.42962L8.62835 5.3132L9.10596 4.42962C9.60004 3.59787 10.3412 3.18156 11.3203 3.18156C12.1668 3.18156 12.8494 3.51062 13.3715 4.15146C13.8761 4.79324 14.1283 5.65983 14.1283 6.75124L14.1267 12.0899Z" fill="#6F6F6F"/>
</svg>
