<?xml version="1.0" encoding="UTF-8"?>
<svg id="Layer_2" data-name="Layer 2" xmlns="http://www.w3.org/2000/svg" viewBox="0 0 410.36 69.1">
  <defs>
    <style>
      .cls-1 {
        stroke: #fff;
        stroke-linecap: round;
        stroke-width: 9px;
      }

      .cls-1, .cls-2 {
        fill: #fff;
      }
    </style>
  </defs>
  <g id="Layer_1-2" data-name="Layer 1">
    <g>
      <path class="cls-2" d="M270.35,69.1c-6.53,0-11.4-1.57-14.6-4.7-3.13-3.2-4.7-8.03-4.7-14.5V5.6L266.05,0v50.4c0,2.27.63,3.97,1.9,5.1s3.23,1.7,5.9,1.7c1,0,1.93-.1,2.8-.3.87-.2,1.73-.43,2.6-.7v11.4c-.87.47-2.1.83-3.7,1.1-1.53.27-3.27.4-5.2.4h0ZM246.15,28.4v-11.4h33.1v11.4h-33.1ZM282.75,68V17h15v51h-15ZM282.25,10.2V0h16v10.2h-16ZM328.71,69c-5.6,0-10.53-1.1-14.8-3.3-4.2-2.27-7.5-5.4-9.9-9.4-2.33-4.07-3.5-8.73-3.5-14s1.17-9.87,3.5-13.8c2.4-3.93,5.7-7,9.9-9.2,4.27-2.2,9.2-3.3,14.8-3.3s10.6,1.1,14.8,3.3c4.27,2.2,7.57,5.27,9.9,9.2s3.5,8.53,3.5,13.8-1.2,9.93-3.6,14c-2.33,4-5.63,7.13-9.9,9.4-4.2,2.2-9.1,3.3-14.7,3.3h0ZM328.71,57.2c2.33,0,4.43-.6,6.3-1.8,1.93-1.2,3.47-2.9,4.6-5.1,1.13-2.27,1.7-4.97,1.7-8.1,0-4.6-1.23-8.13-3.7-10.6-2.4-2.53-5.37-3.8-8.9-3.8s-6.53,1.27-9,3.8c-2.4,2.53-3.6,6.07-3.6,10.6,0,3.13.57,5.83,1.7,8.1,1.13,2.2,2.63,3.9,4.5,5.1,1.93,1.2,4.07,1.8,6.4,1.8ZM359.86,68V17h14.7v12h.3v39h-15ZM395.36,68v-31.6c0-2.8-.73-4.9-2.2-6.3-1.4-1.4-3.47-2.1-6.2-2.1-2.33,0-4.43.53-6.3,1.6-1.8,1.07-3.23,2.53-4.3,4.4-1,1.87-1.5,4.07-1.5,6.6l-1.3-12.3c1.67-3.73,4.1-6.7,7.3-8.9,3.27-2.27,7.27-3.4,12-3.4,5.67,0,10,1.6,13,4.8,3,3.13,4.5,7.37,4.5,12.7v34.5s-15,0-15,0Z"/>
      <rect class="cls-2" x="234.14" y="23.52" width="15.04" height="2" transform="translate(217.06 266.17) rotate(-89.98)"/>
      <path class="cls-2" d="M141.37,27.65h-15.45c-.21-1.59-.63-3.02-1.27-4.29-.64-1.28-1.48-2.37-2.53-3.27-1.05-.91-2.3-1.6-3.74-2.07-1.42-.49-3-.74-4.73-.74-3.07,0-5.72.75-7.94,2.26-2.2,1.5-3.9,3.68-5.1,6.52-1.17,2.84-1.76,6.28-1.76,10.32s.6,7.72,1.79,10.57c1.21,2.82,2.91,4.95,5.1,6.4,2.2,1.42,4.81,2.13,7.82,2.13,1.69,0,3.22-.22,4.6-.65,1.4-.43,2.63-1.06,3.68-1.88,1.07-.84,1.95-1.86,2.63-3.06.7-1.22,1.18-2.58,1.45-4.11l15.45.09c-.27,2.8-1.08,5.56-2.44,8.28-1.34,2.72-3.18,5.2-5.53,7.45-2.35,2.22-5.21,4-8.59,5.31-3.36,1.32-7.21,1.98-11.55,1.98-5.73,0-10.85-1.26-15.39-3.77-4.51-2.53-8.07-6.22-10.69-11.06s-3.92-10.73-3.92-17.67,1.33-12.86,3.99-17.7,6.25-8.52,10.78-11.03,9.61-3.77,15.23-3.77c3.83,0,7.37.54,10.63,1.61,3.25,1.05,6.12,2.6,8.59,4.63,2.47,2.02,4.48,4.5,6.02,7.45,1.54,2.95,2.5,6.31,2.87,10.1v-.03Z"/>
      <path class="cls-2" d="M176.25,68c-.4-1.47-.7-3.03-.9-4.7-.13-1.67-.2-3.6-.2-5.8h-.4v-24.1c0-2.07-.7-3.67-2.1-4.8-1.33-1.2-3.33-1.8-6-1.8s-4.57.43-6.1,1.3c-1.47.87-2.43,2.13-2.9,3.8h-14.3c.67-4.6,3.03-8.4,7.1-11.4s9.63-4.5,16.7-4.5,12.93,1.63,16.8,4.9,5.8,7.97,5.8,14.1v22.5c0,1.67.1,3.37.3,5.1.27,1.67.67,3.47,1.2,5.4h-15ZM158.45,69c-5.07,0-9.1-1.27-12.1-3.8-3-2.6-4.5-6.03-4.5-10.3,0-4.73,1.77-8.53,5.3-11.4,3.6-2.93,8.6-4.83,15-5.7l14.9-2.1v8.7l-12.4,1.9c-2.67.4-4.63,1.13-5.9,2.2-1.27,1.07-1.9,2.53-1.9,4.4,0,1.67.6,2.93,1.8,3.8s2.8,1.3,4.8,1.3c3.13,0,5.8-.83,8-2.5,2.2-1.73,3.3-3.73,3.3-6l1.4,8c-1.47,3.8-3.7,6.67-6.7,8.6s-6.67,2.9-11,2.9h0ZM210.14,69c-3.6,0-6.7-.77-9.3-2.3-2.53-1.6-4.47-3.7-5.8-6.3-1.33-2.67-2-5.63-2-8.9V17h15v31.6c0,2.8.7,4.9,2.1,6.3s3.37,2.1,5.9,2.1c2.27,0,4.27-.53,6-1.6s3.1-2.53,4.1-4.4c1.07-1.93,1.6-4.13,1.6-6.6l1.3,12.3c-1.67,3.67-4.1,6.63-7.3,8.9-3.2,2.27-7.07,3.4-11.6,3.4ZM228.04,68v-12h-.3V17h15v51h-14.7Z"/>
      <line class="cls-1" x1="61.86" y1="48.49" x2="71.37" y2="64.07"/>
      <g>
        <line class="cls-1" x1="14.12" y1="48.62" x2="4.5" y2="64.37"/>
        <line class="cls-1" x1="23.66" y1="64.39" x2="4.59" y2="64.39"/>
        <line class="cls-1" x1="47.19" y1="24.13" x2="37.57" y2="8.39"/>
        <line class="cls-1" x1="28.13" y1="24.33" x2="37.51" y2="8.45"/>
        <line class="cls-1" x1="52.57" y1="64.39" x2="71.65" y2="64.39"/>
      </g>
    </g>
  </g>
</svg>