<?xml version="1.0" encoding="UTF-8"?> <svg xmlns="http://www.w3.org/2000/svg" width="48" height="41" viewBox="0 0 48 41" fill="none"><path d="M47.4283 0.00878906C47.426 4.06043 45.8173 7.94576 42.9549 10.8125C40.0925 13.6792 36.2102 15.2933 32.1596 15.3006H32.1406V8.75563C33.2885 8.75563 34.4251 8.52948 35.4855 8.09011C36.546 7.65073 37.5096 7.00672 38.3212 6.19485C39.1329 5.38298 39.7767 4.41916 40.216 3.3584C40.6552 2.29765 40.8813 1.16074 40.8813 0.0125912L47.4283 0.00878906Z" fill="black"></path><path d="M11.9922 33.414C15.2072 33.6801 17.9872 32.8343 20.0954 30.3169C21.4768 28.6671 22.1361 26.7446 22.0763 24.5931C22.0041 21.973 20.9362 19.8177 18.941 18.1308C16.9459 16.444 14.5764 15.9926 12.0055 16.1741V9.66434C16.7901 9.14071 22.4326 11.163 25.9288 16.1152C29.4441 21.0845 29.579 27.8898 26.1996 33.0729C24.6873 35.4099 22.5629 37.2869 20.0577 38.4996C17.5526 39.7123 14.7628 40.2141 11.9922 39.9504V33.414Z" fill="black"></path><path d="M40.9258 20.875H47.4015V40.0194H40.9258V20.875Z" fill="black"></path><path d="M6.50328 19.1598H0V0.00878906H6.50328V19.1598Z" fill="black"></path></svg> 