<svg width="165" height="20" viewBox="0 0 165 20" fill="none" xmlns="http://www.w3.org/2000/svg">
<path d="M159.636 12.3314L157.311 15.6364L160.101 19.605H164.788L159.636 12.3314ZM160.101 0.377441L157.316 4.35498L159.636 7.65274L164.788 0.377441H160.101ZM151.193 0.377441H146.479L153.331 10.1265L146.696 19.605H151.411L157.933 10.1283L151.193 0.377441Z" fill="white"/>
<path d="M0 8.34838V19.6954H4.00358V12.407C4.00358 12.2055 4.07207 12.0401 4.21087 11.9108C4.34784 11.7815 4.50959 11.7166 4.6941 11.7166H10.2989C10.8867 11.7166 11.3204 11.4048 11.5962 10.7791L12.4521 8.34838H0ZM0 0.369629V3.84827H13.9431C14.5309 3.84827 14.9646 3.55355 15.2402 2.96394L16.2351 0.369629H0Z" fill="white"/>
<path d="M30.5936 1.75048C30.1524 0.829912 29.4716 0.369629 28.551 0.369629H25.4031L17.4512 19.6954H21.6201L27.6399 4.28961L33.5493 19.6954H37.8838L30.5936 1.75048Z" fill="white"/>
<path d="M49.8314 16.1616V1.75048C49.8314 1.36251 49.6982 1.03738 49.4319 0.769076C49.1656 0.50296 48.8385 0.369629 48.4525 0.369629H45.8296V19.6954H58.0877C58.6392 19.6954 59.0635 19.4025 59.3582 18.8131L60.4062 16.1616H49.8314Z" fill="white"/>
<path d="M81.3681 14.6704C81.0923 14.6704 80.8165 14.7637 80.5408 14.948C79.3444 15.8496 77.9996 16.3003 76.5086 16.3003C74.7055 16.3003 73.2048 15.6973 72.0085 14.4915C70.8121 13.2855 70.215 11.8098 70.215 10.0599C70.215 8.25702 70.8083 6.75631 71.9952 5.55997C73.182 4.36363 74.6503 3.76455 76.3982 3.76455C77.9273 3.76455 79.3063 4.24378 80.5408 5.20042C80.8165 5.38493 81.0923 5.47619 81.3681 5.47619C81.6457 5.47619 81.912 5.39458 82.1688 5.22901L84.4054 3.68277C83.523 2.61575 82.3722 1.75037 80.9553 1.08663C79.5364 0.424711 78.0188 0.09375 76.3982 0.09375C74.5039 0.09375 72.7731 0.531266 71.2077 1.40411C69.6444 2.27915 68.4005 3.46583 67.4819 4.96654C66.5614 6.46725 66.1011 8.16376 66.1011 10.0599C66.1011 11.8459 66.5384 13.493 67.4114 15.0032C68.2865 16.5114 69.4959 17.721 71.0424 18.6341C72.5886 19.545 74.3745 19.9997 76.3982 19.9997C77.9273 19.9997 79.3938 19.6782 80.8032 19.0334C82.2105 18.3886 83.3841 17.5252 84.3238 16.4372L82.1688 14.9194C81.912 14.754 81.6457 14.6704 81.3681 14.6704Z" fill="white"/>
<path d="M137.74 0.368896H133.986V14.2539C132.052 11.4511 127.68 5.0548 125.611 2.02607C124.906 0.994206 123.738 0.375999 122.488 0.373085L120.567 0.368896V19.6947H124.351V6.77499L131.751 17.9912C132.453 19.0546 133.642 19.6947 134.916 19.6947H137.74V0.368896Z" fill="white"/>
<path d="M92.1178 4.85057C91.2253 6.36056 90.7788 8.02538 90.7788 9.84685C90.7788 11.7995 91.2526 13.5262 92.2016 15.0253C93.1485 16.5262 94.3999 17.6992 95.9554 18.5443C97.023 19.1254 98.1468 19.5079 99.3308 19.6901V15.9324C98.3126 15.6646 97.4164 15.1307 96.6458 14.3349C95.4764 13.131 94.8917 11.6337 94.8917 9.84685C94.8917 8.04542 95.4764 6.54453 96.6458 5.34783C97.4164 4.55731 98.3126 4.02908 99.3308 3.76133V0C98.0501 0.187611 96.8662 0.59744 95.7771 1.23313C94.2307 2.13658 93.0119 3.34239 92.1178 4.85057ZM109.83 4.68481C108.892 3.19485 107.644 2.02183 106.09 1.16574C105.023 0.579227 103.888 0.193076 102.688 0.00910789V3.75951C103.733 4.02726 104.637 4.56095 105.4 5.36058C106.549 6.56639 107.125 8.06363 107.125 9.84685C107.125 11.6337 106.549 13.131 105.4 14.3349C104.637 15.1346 103.733 15.6701 102.688 15.9378V19.6955C103.972 19.5061 105.158 19.0963 106.241 18.4642C107.786 17.5626 109.006 16.3568 109.899 14.8468C110.791 13.3386 111.238 11.672 111.238 9.84685C111.238 7.89788 110.768 6.17659 109.83 4.68481Z" fill="white"/>
</svg>
