<svg width="205" height="58" viewBox="0 0 205 58" fill="none" xmlns="http://www.w3.org/2000/svg">
<path d="M87.5298 6.19434V43.3754H105.154V49.6355H80.3522V13.596L87.5298 6.19434Z" fill="white"/>
<path d="M122.553 50.4937C113.356 50.4937 107.13 43.6814 107.13 33.6821C107.13 23.6827 113.658 17.0505 122.553 17.0505C133.056 17.0505 137.326 25.3933 137.384 34.4143C137.384 34.7204 137.384 35.2126 137.326 35.7648H113.716C114.25 41.3467 117.691 44.7858 122.553 44.7858C126.052 44.7858 129.017 43.3753 130.085 40.2423H136.909C135.127 46.6825 129.847 50.4877 122.553 50.4877V50.4937ZM130.619 30.7351C130.201 26.1916 127.654 22.5724 122.553 22.5724C117.453 22.5724 114.424 25.8255 113.774 30.7351H130.619Z" fill="white"/>
<path d="M165.259 23.6167H165.317V5.82076H172.315V49.6355H165.195V44.1736H165.137C164.07 46.9346 160.745 50.4337 155.407 50.4337C147.04 50.4337 141.167 43.7475 141.167 33.6821C141.167 23.6167 146.982 17.1166 155.407 17.1166C160.745 17.1166 164.186 20.6757 165.253 23.6227L165.259 23.6167ZM156.834 44.7258C162.886 44.7258 165.729 39.4501 165.729 33.6821C165.729 27.9142 162.764 22.8245 156.834 22.8245C150.904 22.8245 147.997 27.5481 147.997 33.6821C147.997 39.8162 151.02 44.7258 156.834 44.7258Z" fill="white"/>
<path d="M184.773 17.9088V23.4907C186.374 19.8715 189.223 17.0505 193.97 17.0505C201.919 17.0505 205 22.5123 205 29.8108V49.6294H198.176V31.2813C198.176 26.3716 196.575 23.1846 192.304 23.1846C188.034 23.1846 184.889 26.9898 184.889 34.9065V49.6354H178.007V17.9088H184.773Z" fill="white"/>
<path d="M41.7729 44.6052L30.1691 56.7257H0V12.8015L12.2596 0V44.6052H41.7729Z" fill="white"/>
<path d="M13.7738 12.8354L25.3776 0.703345H55.5467V44.6214L43.2871 57.4291V12.8354H13.7738Z" fill="white"/>
</svg>
