<svg width="258" height="32" viewBox="0 0 258 32" fill="none" xmlns="http://www.w3.org/2000/svg">
<path d="M22.1471 15.9873C14.9314 15.9873 7.71574 30 0.5 30V16.0125C8.00136 16.0125 15.2169 2 22.1471 2V15.9873Z" fill="#FEFEFE"/>
<path d="M43.8201 15.9873C36.6043 15.9873 29.3886 30 22.1729 30V16.0125C29.6741 16.0125 36.8899 2 43.8201 2V15.9873Z" fill="#FEFEFE"/>
<path d="M60.4996 21.9231C60.4996 26.3838 56.7687 29.9999 52.1663 29.9999C47.564 29.9999 43.833 26.3838 43.833 21.9231C43.833 17.4623 47.564 13.8459 52.1663 13.8459C56.7687 13.8459 60.4996 17.4623 60.4996 21.9231Z" fill="#FEFEFE"/>
<path d="M74.5 0.731934H79.8027L86.904 18.0016H87.1843L94.2857 0.731934H99.5883V24.565H95.4303V8.19139H95.2084L88.5976 24.4951H85.4908L78.8799 8.15648H78.658V24.565H74.5V0.731934Z" fill="#FEFEFE"/>
<path d="M105.761 31.268C105.185 31.268 104.652 31.2215 104.161 31.1284C103.678 31.043 103.293 30.9422 103.005 30.8258L103.986 27.5441C104.601 27.7225 105.15 27.8079 105.633 27.8001C106.116 27.7924 106.54 27.6411 106.906 27.3463C107.28 27.0592 107.595 26.5782 107.852 25.9033L108.214 24.9374L101.708 6.69019H106.194L110.328 20.1894H110.515L114.661 6.69019H119.158L111.975 26.7295C111.64 27.676 111.196 28.4867 110.644 29.1617C110.091 29.8444 109.413 30.3642 108.611 30.7211C107.817 31.0857 106.867 31.268 105.761 31.268Z" fill="#FEFEFE"/>
<path d="M135.277 11.4149L131.422 11.8338C131.313 11.4459 131.122 11.0813 130.85 10.7399C130.585 10.3986 130.227 10.1232 129.775 9.9137C129.324 9.70423 128.771 9.5995 128.117 9.5995C127.237 9.5995 126.497 9.78957 125.898 10.1697C125.306 10.5499 125.014 11.0425 125.022 11.6477C125.014 12.1674 125.205 12.5903 125.594 12.9161C125.991 13.242 126.645 13.5096 127.556 13.7191L130.616 14.3708C132.314 14.7354 133.575 15.3134 134.401 16.1047C135.234 16.896 135.654 17.9318 135.662 19.2118C135.654 20.3368 135.323 21.3298 134.669 22.191C134.023 23.0444 133.124 23.7116 131.971 24.1926C130.819 24.6736 129.495 24.9141 128 24.9141C125.804 24.9141 124.037 24.4564 122.697 23.5409C121.358 22.6177 120.56 21.3337 120.303 19.689L124.426 19.2933C124.613 20.1002 125.01 20.7092 125.617 21.1204C126.225 21.5315 127.015 21.7371 127.988 21.7371C128.993 21.7371 129.799 21.5315 130.406 21.1204C131.021 20.7092 131.329 20.201 131.329 19.5959C131.329 19.0838 131.13 18.661 130.733 18.3274C130.344 17.9938 129.736 17.7378 128.911 17.5594L125.851 16.9193C124.13 16.5624 122.857 15.9612 122.032 15.1155C121.206 14.2621 120.797 13.1838 120.805 11.8804C120.797 10.7787 121.097 9.82449 121.705 9.01764C122.32 8.20303 123.172 7.57462 124.263 7.13241C125.36 6.68244 126.626 6.45745 128.058 6.45745C130.161 6.45745 131.815 6.90354 133.022 7.79573C134.237 8.68792 134.989 9.89431 135.277 11.4149Z" fill="#FEFEFE"/>
<path d="M147.12 6.69019V9.94862H136.807V6.69019H147.12ZM139.353 2.40769H143.581V19.1886C143.581 19.7549 143.667 20.1894 143.838 20.4919C144.017 20.7868 144.251 20.9885 144.539 21.0971C144.827 21.2057 145.146 21.26 145.497 21.26C145.761 21.26 146.003 21.2406 146.221 21.2018C146.447 21.163 146.618 21.1281 146.735 21.0971L147.447 24.3904C147.221 24.468 146.898 24.5533 146.478 24.6464C146.065 24.7395 145.559 24.7938 144.959 24.8094C143.9 24.8404 142.947 24.6813 142.098 24.3322C141.249 23.9754 140.576 23.4245 140.077 22.6797C139.587 21.935 139.345 21.004 139.353 19.8868V2.40769Z" fill="#FEFEFE"/>
<path d="M157.419 24.9141C155.62 24.9141 154.067 24.5417 152.759 23.7969C151.459 23.0444 150.458 21.9815 149.757 20.6083C149.056 19.2274 148.706 17.602 148.706 15.7323C148.706 13.8936 149.056 12.2799 149.757 10.8912C150.466 9.49476 151.455 8.40862 152.724 7.63281C153.993 6.84924 155.484 6.45745 157.197 6.45745C158.303 6.45745 159.346 6.63589 160.327 6.99276C161.316 7.34188 162.188 7.88495 162.944 8.62197C163.707 9.359 164.306 10.2977 164.742 11.4382C165.179 12.5709 165.397 13.9208 165.397 15.4879V16.7797H150.692V13.9402H161.344C161.336 13.1333 161.161 12.4157 160.818 11.7873C160.475 11.1511 159.997 10.6507 159.381 10.2861C158.774 9.92146 158.065 9.73915 157.256 9.73915C156.391 9.73915 155.632 9.94862 154.978 10.3676C154.324 10.7787 153.814 11.3218 153.448 11.9968C153.09 12.664 152.907 13.3971 152.899 14.1962V16.6749C152.899 17.7145 153.09 18.6067 153.471 19.3515C153.853 20.0885 154.386 20.6549 155.072 21.0505C155.757 21.4384 156.559 21.6324 157.478 21.6324C158.093 21.6324 158.649 21.5471 159.148 21.3764C159.646 21.1979 160.078 20.938 160.444 20.5967C160.81 20.2553 161.087 19.8325 161.274 19.3282L165.221 19.7704C164.972 20.81 164.497 21.7177 163.796 22.4935C163.103 23.2616 162.216 23.859 161.133 24.2857C160.051 24.7046 158.813 24.9141 157.419 24.9141Z" fill="#FEFEFE"/>
<path d="M172.215 14.0915V24.565H167.987V6.69019H172.028V9.72751H172.238C172.651 8.72671 173.309 7.9315 174.212 7.34188C175.123 6.75226 176.248 6.45745 177.588 6.45745C178.826 6.45745 179.904 6.72123 180.823 7.24878C181.75 7.77633 182.466 8.54051 182.972 9.54131C183.486 10.5421 183.739 11.7563 183.731 13.1838V24.565H179.503V13.8354C179.503 12.6407 179.192 11.7058 178.569 11.0309C177.954 10.3559 177.101 10.0184 176.011 10.0184C175.271 10.0184 174.613 10.1814 174.037 10.5072C173.469 10.8253 173.021 11.2869 172.694 11.892C172.375 12.4972 172.215 13.2303 172.215 14.0915Z" fill="#FEFEFE"/>
<path d="M191.818 24.565V0.731934H194.002V22.6099H205.402V24.565H191.818Z" fill="#FEFEFE"/>
<path d="M213.911 24.9723C212.828 24.9723 211.839 24.7628 210.944 24.3439C210.049 23.9172 209.336 23.3043 208.807 22.5052C208.277 21.6983 208.012 20.7208 208.012 19.5726C208.012 18.6882 208.18 17.9434 208.515 17.3383C208.849 16.7331 209.324 16.2366 209.94 15.8487C210.555 15.4608 211.283 15.1543 212.124 14.9293C212.965 14.7044 213.891 14.5298 214.904 14.4057C215.908 14.2815 216.757 14.1729 217.45 14.0798C218.15 13.9867 218.684 13.8393 219.05 13.6376C219.416 13.4359 219.599 13.1101 219.599 12.6601V12.2411C219.599 11.0231 219.233 10.065 218.501 9.36676C217.777 8.66076 216.733 8.30777 215.371 8.30777C214.078 8.30777 213.023 8.59094 212.205 9.15728C211.396 9.72363 210.827 10.3908 210.5 11.1589L208.526 10.449C208.931 9.47149 209.492 8.6918 210.208 8.10994C210.925 7.52032 211.727 7.0975 212.614 6.84148C213.502 6.5777 214.401 6.44581 215.312 6.44581C215.998 6.44581 216.71 6.53503 217.45 6.71347C218.197 6.8919 218.89 7.20223 219.529 7.64445C220.167 8.0789 220.685 8.68792 221.082 9.47149C221.479 10.2473 221.678 11.2326 221.678 12.4273V24.565H219.599V21.7371H219.47C219.221 22.2647 218.851 22.7767 218.361 23.2732C217.87 23.7698 217.255 24.1771 216.515 24.4951C215.776 24.8132 214.907 24.9723 213.911 24.9723ZM214.191 23.0754C215.297 23.0754 216.254 22.831 217.064 22.3423C217.874 21.8535 218.497 21.2057 218.933 20.3988C219.377 19.5842 219.599 18.6882 219.599 17.7106V15.1272C219.443 15.2746 219.182 15.4065 218.816 15.5228C218.458 15.6392 218.041 15.744 217.567 15.8371C217.099 15.9224 216.632 15.9961 216.165 16.0582C215.698 16.1202 215.277 16.1745 214.904 16.2211C213.891 16.3452 213.027 16.5392 212.311 16.8029C211.594 17.0667 211.045 17.4314 210.664 17.8968C210.282 18.3546 210.091 18.9442 210.091 19.6657C210.091 20.7518 210.481 21.5936 211.259 22.191C212.038 22.7806 213.015 23.0754 214.191 23.0754Z" fill="#FEFEFE"/>
<path d="M226.654 24.565V0.731934H228.744V10.0999H228.931C229.165 9.56459 229.5 9.01376 229.936 8.44741C230.38 7.88107 230.96 7.40782 231.676 7.02767C232.4 6.63977 233.311 6.44581 234.409 6.44581C235.881 6.44581 237.173 6.83372 238.287 7.60953C239.4 8.37759 240.268 9.45597 240.891 10.8447C241.514 12.2256 241.826 13.8354 241.826 15.6741C241.826 17.5206 241.514 19.1381 240.891 20.5269C240.276 21.9156 239.412 22.9978 238.298 23.7736C237.193 24.5495 235.908 24.9374 234.444 24.9374C233.354 24.9374 232.443 24.7434 231.711 24.3555C230.987 23.9676 230.403 23.4905 229.959 22.9241C229.515 22.35 229.173 21.7914 228.931 21.2484H228.674V24.565H226.654ZM228.709 15.6392C228.709 17.0822 228.923 18.3623 229.352 19.4795C229.788 20.5889 230.411 21.4617 231.22 22.0979C232.038 22.7263 233.027 23.0405 234.187 23.0405C235.379 23.0405 236.387 22.7147 237.212 22.063C238.038 21.4035 238.664 20.5152 239.093 19.398C239.521 18.2809 239.735 17.0279 239.735 15.6392C239.735 14.266 239.521 13.0286 239.093 11.9269C238.672 10.8253 238.049 9.95249 237.224 9.30857C236.399 8.65688 235.386 8.33104 234.187 8.33104C233.019 8.33104 232.026 8.64525 231.209 9.27366C230.399 9.89431 229.78 10.7555 229.352 11.8571C228.923 12.951 228.709 14.2117 228.709 15.6392Z" fill="#FEFEFE"/>
<path d="M257.46 10.6119L255.556 11.1473C255.369 10.6119 255.104 10.1271 254.761 9.6926C254.419 9.25814 253.971 8.9129 253.418 8.65688C252.873 8.40087 252.196 8.27286 251.386 8.27286C250.171 8.27286 249.175 8.55991 248.396 9.13401C247.617 9.70811 247.228 10.449 247.228 11.3567C247.228 12.1248 247.493 12.7493 248.022 13.2303C248.559 13.7036 249.385 14.0798 250.498 14.3591L253.208 15.0224C254.711 15.3871 255.836 15.9651 256.584 16.7564C257.339 17.5477 257.716 18.5408 257.716 19.7355C257.716 20.7441 257.436 21.6401 256.876 22.4237C256.315 23.2073 255.532 23.8241 254.528 24.274C253.531 24.7163 252.375 24.9374 251.059 24.9374C249.307 24.9374 247.863 24.5456 246.726 23.762C245.589 22.9707 244.861 21.8302 244.542 20.3407L246.539 19.8519C246.796 20.9148 247.298 21.7177 248.046 22.2608C248.801 22.8039 249.794 23.0754 251.024 23.0754C252.402 23.0754 253.504 22.769 254.329 22.1561C255.155 21.5354 255.567 20.7596 255.567 19.8286C255.567 19.1071 255.326 18.502 254.843 18.0132C254.36 17.5167 253.629 17.1521 252.647 16.9193L249.716 16.2211C248.158 15.8487 247.006 15.2591 246.259 14.4522C245.511 13.6454 245.137 12.6446 245.137 11.4498C245.137 10.4645 245.406 9.5995 245.943 8.85472C246.48 8.10218 247.22 7.51256 248.162 7.08586C249.105 6.65916 250.179 6.44581 251.386 6.44581C253.029 6.44581 254.341 6.8182 255.322 7.56298C256.311 8.30001 257.023 9.31633 257.46 10.6119Z" fill="#FEFEFE"/>
</svg>
