<svg width="27" height="28" viewBox="0 0 27 28" fill="none" xmlns="http://www.w3.org/2000/svg">
<path d="M13.5 2.75C11.275 2.75 9.09989 3.4098 7.24984 4.64597C5.39979 5.88213 3.95785 7.63914 3.10636 9.69481C2.25487 11.7505 2.03209 14.0125 2.46617 16.1948C2.90025 18.3771 3.97171 20.3816 5.54505 21.955C7.11839 23.5283 9.12295 24.5998 11.3052 25.0338C13.4875 25.4679 15.7495 25.2451 17.8052 24.3936C19.8609 23.5422 21.6179 22.1002 22.854 20.2502C24.0902 18.4001 24.75 16.225 24.75 14C24.75 12.5226 24.459 11.0597 23.8937 9.69481C23.3283 8.3299 22.4996 7.08971 21.455 6.04505C20.4103 5.00039 19.1701 4.17172 17.8052 3.60636C16.4403 3.04099 14.9774 2.75 13.5 2.75ZM18.3375 11.3112L13.1963 18.0612C13.0915 18.1974 12.9569 18.3077 12.8028 18.3838C12.6487 18.4598 12.4793 18.4996 12.3075 18.5C12.1366 18.5009 11.9678 18.4629 11.8138 18.3888C11.6598 18.3148 11.5247 18.2066 11.4188 18.0725L8.67375 14.5738C8.5829 14.457 8.51592 14.3236 8.47664 14.181C8.43736 14.0384 8.42655 13.8894 8.44483 13.7427C8.46312 13.5959 8.51013 13.4542 8.58319 13.3255C8.65624 13.1969 8.75392 13.084 8.87063 12.9931C9.10634 12.8096 9.40529 12.7273 9.70172 12.7642C9.84849 12.7825 9.99023 12.8295 10.1188 12.9026C10.2474 12.9756 10.3604 13.0733 10.4513 13.19L12.285 15.53L16.5375 9.905C16.6276 9.78681 16.7401 9.68753 16.8686 9.61282C16.9971 9.53812 17.1391 9.48945 17.2864 9.4696C17.4337 9.44975 17.5834 9.45911 17.7271 9.49714C17.8708 9.53517 18.0056 9.60113 18.1238 9.69125C18.2419 9.78137 18.3412 9.89389 18.4159 10.0224C18.4906 10.1509 18.5393 10.2928 18.5592 10.4401C18.579 10.5874 18.5696 10.7372 18.5316 10.8808C18.4936 11.0245 18.4276 11.1593 18.3375 11.2775V11.3112Z" fill="black"/>
</svg>
