<svg width="466" height="125" viewBox="0 0 466 125" fill="none" xmlns="http://www.w3.org/2000/svg">
<rect y="3" width="120" height="120" rx="40" fill="black"/>
<line x1="35.3151" y1="75.5648" x2="25.257" y2="92.8072" stroke="white" stroke-width="10.5" stroke-linecap="round"/>
<line x1="45.1346" y1="93.4808" x2="25.173" y2="93.4808" stroke="white" stroke-width="10.5" stroke-linecap="round"/>
<line x1="70.7604" y1="46.6464" x2="60.6878" y2="29.4125" stroke="white" stroke-width="10.5" stroke-linecap="round"/>
<line x1="50.3315" y1="46.3924" x2="60.1425" y2="29.0083" stroke="white" stroke-width="10.5" stroke-linecap="round"/>
<line x1="5.25" y1="-5.25" x2="25.2115" y2="-5.25" transform="matrix(0.503871 0.863779 0.863779 -0.503871 89.4974 68.3846)" stroke="white" stroke-width="10.5" stroke-linecap="round"/>
<line x1="5.25" y1="-5.25" x2="25.2115" y2="-5.25" transform="matrix(1 0 0 -1 72.5384 88.2308)" stroke="white" stroke-width="10.5" stroke-linecap="round"/>
<path d="M318.2 98.1C311.667 98.1 306.8 96.5333 303.6 93.4C300.467 90.2 298.9 85.3667 298.9 78.9V34.6L313.9 29V79.4C313.9 81.6667 314.533 83.3667 315.8 84.5C317.067 85.6333 319.033 86.2 321.7 86.2C322.7 86.2 323.633 86.1 324.5 85.9C325.367 85.7 326.233 85.4667 327.1 85.2V96.6C326.233 97.0667 325 97.4333 323.4 97.7C321.867 97.9667 320.133 98.1 318.2 98.1ZM289.4 57.4V46H327.1V57.4H289.4ZM330.602 97V46H345.602V97H330.602ZM330.102 39.2V23H346.102V39.2H330.102ZM376.559 98C370.959 98 366.026 96.9 361.759 94.7C357.559 92.4333 354.259 89.3 351.859 85.3C349.526 81.2333 348.359 76.5667 348.359 71.3C348.359 66.0333 349.526 61.4333 351.859 57.5C354.259 53.5667 357.559 50.5 361.759 48.3C366.026 46.1 370.959 45 376.559 45C382.226 45 387.159 46.1 391.359 48.3C395.626 50.5 398.926 53.5667 401.259 57.5C403.593 61.4333 404.759 66.0333 404.759 71.3C404.759 76.5667 403.559 81.2333 401.159 85.3C398.826 89.3 395.526 92.4333 391.259 94.7C387.059 96.9 382.159 98 376.559 98ZM376.559 86.2C378.893 86.2 380.993 85.6 382.859 84.4C384.793 83.2 386.326 81.5 387.459 79.3C388.593 77.0333 389.159 74.3333 389.159 71.2C389.159 66.6 387.926 63.0667 385.459 60.6C383.059 58.0667 380.093 56.8 376.559 56.8C373.026 56.8 370.026 58.0667 367.559 60.6C365.159 63.1333 363.959 66.6667 363.959 71.2C363.959 74.3333 364.526 77.0333 365.659 79.3C366.793 81.5 368.293 83.2 370.159 84.4C372.093 85.6 374.226 86.2 376.559 86.2ZM407.711 97V46H422.411V58H422.711V97H407.711ZM443.211 97V65.4C443.211 62.6 442.478 60.5 441.011 59.1C439.611 57.7 437.544 57 434.811 57C432.478 57 430.378 57.5333 428.511 58.6C426.711 59.6667 425.278 61.1333 424.211 63C423.211 64.8667 422.711 67.0667 422.711 69.6L421.411 57.3C423.078 53.5667 425.511 50.6 428.711 48.4C431.978 46.1333 435.978 45 440.711 45C446.378 45 450.711 46.6 453.711 49.8C456.711 52.9333 458.211 57.1667 458.211 62.5V97H443.211Z" fill="black"/>
<rect width="15.0406" height="2.00046" transform="matrix(-0.000292891 1 -0.999999 -0.00119864 290.499 46.0024)" fill="white"/>
<path d="M189.222 56.6513H173.775C173.569 55.0653 173.147 53.6339 172.508 52.3569C171.87 51.0799 171.025 49.9883 169.975 49.082C168.924 48.1758 167.678 47.4858 166.237 47.0121C164.815 46.5178 163.24 46.2706 161.51 46.2706C158.441 46.2706 155.794 47.0224 153.57 48.5259C151.366 50.0295 149.667 52.2024 148.472 55.0447C147.298 57.8871 146.711 61.3267 146.711 65.3636C146.711 69.5653 147.308 73.0874 148.503 75.9297C149.718 78.7514 151.417 80.8832 153.6 82.3249C155.804 83.7461 158.41 84.4567 161.417 84.4567C163.106 84.4567 164.64 84.2404 166.02 83.8079C167.421 83.3754 168.646 82.7472 169.697 81.9233C170.768 81.0788 171.643 80.0593 172.323 78.8647C173.023 77.6495 173.507 76.2798 173.775 74.7557L189.222 74.8484C188.955 77.6495 188.141 80.4094 186.782 83.1282C185.443 85.8469 183.599 88.3288 181.251 90.5739C178.903 92.7983 176.04 94.5696 172.663 95.8878C169.305 97.206 165.454 97.8651 161.108 97.8651C155.382 97.8651 150.254 96.6087 145.722 94.0959C141.212 91.5625 137.648 87.8757 135.033 83.0355C132.417 78.1953 131.109 72.3047 131.109 65.3636C131.109 58.402 132.438 52.5011 135.094 47.6609C137.751 42.8207 141.346 39.1442 145.877 36.6314C150.408 34.1186 155.485 32.8622 161.108 32.8622C164.939 32.8622 168.482 33.3977 171.736 34.4688C174.99 35.5192 177.853 37.0639 180.325 39.103C182.796 41.1214 184.804 43.6033 186.349 46.5487C187.894 49.494 188.852 52.8615 189.222 56.6513Z" fill="black"/>
<rect x="312" y="19" width="36" height="10" fill="white"/>
<rect x="294" y="43" width="16" height="4" transform="rotate(90 294 43)" fill="white"/>
<path d="M224.1 97C223.7 95.5333 223.4 93.9667 223.2 92.3C223.067 90.6333 223 88.7 223 86.5H222.6V62.4C222.6 60.3333 221.9 58.7333 220.5 57.6C219.167 56.4 217.167 55.8 214.5 55.8C211.967 55.8 209.933 56.2333 208.4 57.1C206.933 57.9667 205.967 59.2333 205.5 60.9H191.2C191.867 56.3 194.233 52.5 198.3 49.5C202.367 46.5 207.933 45 215 45C222.333 45 227.933 46.6333 231.8 49.9C235.667 53.1667 237.6 57.8667 237.6 64V86.5C237.6 88.1667 237.7 89.8667 237.9 91.6C238.167 93.2667 238.567 95.0667 239.1 97H224.1ZM206.3 98C201.233 98 197.2 96.7333 194.2 94.2C191.2 91.6 189.7 88.1667 189.7 83.9C189.7 79.1667 191.467 75.3667 195 72.5C198.6 69.5667 203.6 67.6667 210 66.8L224.9 64.7V73.4L212.5 75.3C209.833 75.7 207.867 76.4333 206.6 77.5C205.333 78.5667 204.7 80.0333 204.7 81.9C204.7 83.5667 205.3 84.8333 206.5 85.7C207.7 86.5667 209.3 87 211.3 87C214.433 87 217.1 86.1667 219.3 84.5C221.5 82.7667 222.6 80.7667 222.6 78.5L224 86.5C222.533 90.3 220.3 93.1667 217.3 95.1C214.3 97.0333 210.633 98 206.3 98ZM257.992 98C254.392 98 251.292 97.2333 248.692 95.7C246.159 94.1 244.226 92 242.892 89.4C241.559 86.7333 240.892 83.7667 240.892 80.5V46H255.892V77.6C255.892 80.4 256.592 82.5 257.992 83.9C259.392 85.3 261.359 86 263.892 86C266.159 86 268.159 85.4667 269.892 84.4C271.626 83.3333 272.992 81.8667 273.992 80C275.059 78.0667 275.592 75.8667 275.592 73.4L276.892 85.7C275.226 89.3667 272.792 92.3333 269.592 94.6C266.392 96.8667 262.526 98 257.992 98ZM275.892 97V85H275.592V46H290.592V97H275.892Z" fill="black"/>
</svg>
