<svg width="453" height="125" viewBox="0 0 453 125" fill="none" xmlns="http://www.w3.org/2000/svg">
<rect x="299" y="19" width="36" height="10" fill="white"/>
<path d="M305.2 98.1C298.667 98.1 293.8 96.5333 290.6 93.4C287.467 90.2 285.9 85.3667 285.9 78.9V34.6L300.9 29V79.4C300.9 81.6667 301.533 83.3667 302.8 84.5C304.067 85.6333 306.033 86.2 308.7 86.2C309.7 86.2 310.633 86.1 311.5 85.9C312.367 85.7 313.233 85.4667 314.1 85.2V96.6C313.233 97.0667 312 97.4333 310.4 97.7C308.867 97.9667 307.133 98.1 305.2 98.1ZM276.4 57.4V46H314.1V57.4H276.4ZM317.602 97V46H332.602V97H317.602ZM317.102 39.2V23H333.102V39.2H317.102ZM363.559 98C357.959 98 353.026 96.9 348.759 94.7C344.559 92.4333 341.259 89.3 338.859 85.3C336.526 81.2333 335.359 76.5667 335.359 71.3C335.359 66.0333 336.526 61.4333 338.859 57.5C341.259 53.5667 344.559 50.5 348.759 48.3C353.026 46.1 357.959 45 363.559 45C369.226 45 374.159 46.1 378.359 48.3C382.626 50.5 385.926 53.5667 388.259 57.5C390.593 61.4333 391.759 66.0333 391.759 71.3C391.759 76.5667 390.559 81.2333 388.159 85.3C385.826 89.3 382.526 92.4333 378.259 94.7C374.059 96.9 369.159 98 363.559 98ZM363.559 86.2C365.893 86.2 367.993 85.6 369.859 84.4C371.793 83.2 373.326 81.5 374.459 79.3C375.593 77.0333 376.159 74.3333 376.159 71.2C376.159 66.6 374.926 63.0667 372.459 60.6C370.059 58.0667 367.093 56.8 363.559 56.8C360.026 56.8 357.026 58.0667 354.559 60.6C352.159 63.1333 350.959 66.6667 350.959 71.2C350.959 74.3333 351.526 77.0333 352.659 79.3C353.793 81.5 355.293 83.2 357.159 84.4C359.093 85.6 361.226 86.2 363.559 86.2ZM394.711 97V46H409.411V58H409.711V97H394.711ZM430.211 97V65.4C430.211 62.6 429.478 60.5 428.011 59.1C426.611 57.7 424.544 57 421.811 57C419.478 57 417.378 57.5333 415.511 58.6C413.711 59.6667 412.278 61.1333 411.211 63C410.211 64.8667 409.711 67.0667 409.711 69.6L408.411 57.3C410.078 53.5667 412.511 50.6 415.711 48.4C418.978 46.1333 422.978 45 427.711 45C433.378 45 437.711 46.6 440.711 49.8C443.711 52.9333 445.211 57.1667 445.211 62.5V97H430.211Z" fill="black"/>
<rect width="15.0406" height="2.00046" transform="matrix(-0.000292891 1 -0.999999 -0.00119864 277.499 46.0024)" fill="white"/>
<path d="M176.222 56.6513H160.775C160.569 55.0653 160.147 53.6339 159.508 52.3569C158.87 51.0799 158.025 49.9883 156.975 49.082C155.924 48.1758 154.678 47.4858 153.237 47.0121C151.815 46.5178 150.24 46.2706 148.51 46.2706C145.441 46.2706 142.794 47.0224 140.57 48.5259C138.366 50.0295 136.667 52.2024 135.472 55.0447C134.298 57.8871 133.711 61.3267 133.711 65.3636C133.711 69.5653 134.308 73.0874 135.503 75.9297C136.718 78.7514 138.417 80.8832 140.6 82.3249C142.804 83.7461 145.41 84.4567 148.417 84.4567C150.106 84.4567 151.64 84.2404 153.02 83.8079C154.421 83.3754 155.646 82.7472 156.697 81.9233C157.768 81.0788 158.643 80.0593 159.323 78.8647C160.023 77.6495 160.507 76.2798 160.775 74.7557L176.222 74.8484C175.955 77.6495 175.141 80.4094 173.782 83.1282C172.443 85.8469 170.599 88.3288 168.251 90.5739C165.903 92.7983 163.04 94.5696 159.663 95.8878C156.305 97.206 152.454 97.8651 148.108 97.8651C142.382 97.8651 137.254 96.6087 132.722 94.0959C128.212 91.5625 124.648 87.8757 122.033 83.0355C119.417 78.1953 118.109 72.3047 118.109 65.3636C118.109 58.402 119.438 52.5011 122.094 47.6609C124.751 42.8207 128.346 39.1442 132.877 36.6314C137.408 34.1186 142.485 32.8622 148.108 32.8622C151.939 32.8622 155.482 33.3977 158.736 34.4688C161.99 35.5192 164.853 37.0639 167.325 39.103C169.796 41.1214 171.804 43.6033 173.349 46.5487C174.894 49.494 175.852 52.8615 176.222 56.6513Z" fill="black"/>
<rect x="281" y="43" width="16" height="4" transform="rotate(90 281 43)" fill="white"/>
<path d="M211.1 97C210.7 95.5333 210.4 93.9667 210.2 92.3C210.067 90.6333 210 88.7 210 86.5H209.6V62.4C209.6 60.3333 208.9 58.7333 207.5 57.6C206.167 56.4 204.167 55.8 201.5 55.8C198.967 55.8 196.933 56.2333 195.4 57.1C193.933 57.9667 192.967 59.2333 192.5 60.9H178.2C178.867 56.3 181.233 52.5 185.3 49.5C189.367 46.5 194.933 45 202 45C209.333 45 214.933 46.6333 218.8 49.9C222.667 53.1667 224.6 57.8667 224.6 64V86.5C224.6 88.1667 224.7 89.8667 224.9 91.6C225.167 93.2667 225.567 95.0667 226.1 97H211.1ZM193.3 98C188.233 98 184.2 96.7333 181.2 94.2C178.2 91.6 176.7 88.1667 176.7 83.9C176.7 79.1667 178.467 75.3667 182 72.5C185.6 69.5667 190.6 67.6667 197 66.8L211.9 64.7V73.4L199.5 75.3C196.833 75.7 194.867 76.4333 193.6 77.5C192.333 78.5667 191.7 80.0333 191.7 81.9C191.7 83.5667 192.3 84.8333 193.5 85.7C194.7 86.5667 196.3 87 198.3 87C201.433 87 204.1 86.1667 206.3 84.5C208.5 82.7667 209.6 80.7667 209.6 78.5L211 86.5C209.533 90.3 207.3 93.1667 204.3 95.1C201.3 97.0333 197.633 98 193.3 98ZM244.992 98C241.392 98 238.292 97.2333 235.692 95.7C233.159 94.1 231.226 92 229.892 89.4C228.559 86.7333 227.892 83.7667 227.892 80.5V46H242.892V77.6C242.892 80.4 243.592 82.5 244.992 83.9C246.392 85.3 248.359 86 250.892 86C253.159 86 255.159 85.4667 256.892 84.4C258.626 83.3333 259.992 81.8667 260.992 80C262.059 78.0667 262.592 75.8667 262.592 73.4L263.892 85.7C262.226 89.3667 259.792 92.3333 256.592 94.6C253.392 96.8667 249.526 98 244.992 98ZM262.892 97V85H262.592V46H277.592V97H262.892Z" fill="black"/>
<line x1="19.1577" y1="79.3032" x2="7.5648" y2="99.1767" stroke="black" stroke-width="10.5" stroke-linecap="round"/>
<line x1="30.6731" y1="99.2038" x2="7.6654" y2="99.2038" stroke="black" stroke-width="10.5" stroke-linecap="round"/>
<line x1="59.0546" y1="48.3993" x2="47.445" y2="28.5356" stroke="black" stroke-width="10.5" stroke-linecap="round"/>
<line x1="36.0639" y1="48.6469" x2="47.372" y2="28.6099" stroke="black" stroke-width="10.5" stroke-linecap="round"/>
<line x1="5.25" y1="-5.25" x2="28.2577" y2="-5.25" transform="matrix(0.503871 0.863779 0.863779 -0.503871 78.9472 72.123)" stroke="black" stroke-width="10.5" stroke-linecap="round"/>
<line x1="5.25" y1="-5.25" x2="28.2577" y2="-5.25" transform="matrix(1 0 0 -1 60.2923 93.9538)" stroke="black" stroke-width="10.5" stroke-linecap="round"/>
</svg>
