<svg id="svg1681" xmlns="http://www.w3.org/2000/svg" width="300" height="77.54" viewBox="0 0 300 77.54"><defs><style>.cls-1{fill:#fff;}</style></defs><path class="cls-1" d="M56.15,0H21.39A21.39,21.39,0,0,0,0,21.39V56.15A21.39,21.39,0,0,0,21.39,77.54H56.15A21.38,21.38,0,0,0,77.54,56.15V21.39A21.39,21.39,0,0,0,56.15,0ZM5.76,40.46V37.89a2.62,2.62,0,0,1,1-2.35L22.21,20.06a2.6,2.6,0,0,1,2.35-1h2.58a2.6,2.6,0,0,1,2.35,1l9.56,9.6-4.7,4.69-8.5-8.53L12.49,39.18,21,47.72l-4.7,4.69-9.57-9.6A2.63,2.63,0,0,1,5.76,40.46Zm9.83,24.83a1.12,1.12,0,0,1-1.59,0l-2.65-2.65a1.12,1.12,0,0,1,0-1.59L60.54,11.86a1.11,1.11,0,0,1,1.59,0l2.65,2.64a1.13,1.13,0,0,1,0,1.6ZM71.78,40.47a2.6,2.6,0,0,1-1,2.34L55.33,58.29a2.62,2.62,0,0,1-2.35,1H50.41a2.62,2.62,0,0,1-2.35-1L37.21,47.35l4.69-4.69,9.8,9.86L65.06,39.17l-9.8-9.87L60,24.61,70.82,35.55a2.66,2.66,0,0,1,1,2.34Z"/><g id="layer2"><g id="text2555-4-2-6"><path id="path2692-8-9-2" class="cls-1" d="M107.08,27.21h-6.39v24h6.72q11.78,0,11.78-12.5,0-6-2.89-8.76t-9.22-2.79ZM91,59.39V19.08H108.3q10.33,0,15.38,5.15t5.09,14.53q0,9.24-5.45,15t-15,5.67Z"/><path id="path2694-4-8-6" class="cls-1" d="M140.84,24.19h-9.55v-6h9.55Zm-.13,35.2h-9.22V27.54h9.22Z"/><path id="path2696-0-2-4" class="cls-1" d="M157.93,60.34a23.8,23.8,0,0,1-5.61-.59,14,14,0,0,1-4-1.51,10.25,10.25,0,0,1-2.75-2.36A11.37,11.37,0,0,1,143.82,53a16.49,16.49,0,0,1-.88-3.38l8.53-1.67a8.24,8.24,0,0,0,2.26,4.23,6.35,6.35,0,0,0,4.39,1.41c2.93,0,4.43-1,4.5-3a2.55,2.55,0,0,0-1.41-2.23,19.62,19.62,0,0,0-5.51-1.67q-6.57-1.38-9.25-3.74a8.06,8.06,0,0,1-2.69-6.4,8.59,8.59,0,0,1,3.34-7.21q3.38-2.59,9.94-2.59c4.37,0,7.66.83,9.84,2.49a11.52,11.52,0,0,1,4.27,7.18l-8.73,1.94a7.43,7.43,0,0,0-1.87-3.84A4.9,4.9,0,0,0,157,33.25a5.38,5.38,0,0,0-3.09.75,2.38,2.38,0,0,0-1.08,2.07,2.72,2.72,0,0,0,.43,1.6,4.79,4.79,0,0,0,2,1.28,24.33,24.33,0,0,0,4.59,1.22c4.35.85,7.41,2.1,9.15,3.74a8.21,8.21,0,0,1,2.63,6.26,9.05,9.05,0,0,1-3.38,7.51q-3.37,2.67-10.33,2.66Z"/><path id="path2698-80-9-7" class="cls-1" d="M176.1,49.39V35.21h-3.7V27.54h3.7v-8h9.12v8h8.4v7.67h-8.4V47.65A4.1,4.1,0,0,0,186,50.5a3.9,3.9,0,0,0,2.89.89,23.86,23.86,0,0,0,4.16-.72l1,8.46a30.76,30.76,0,0,1-3.64.92,21.64,21.64,0,0,1-3.9.29q-5.25,0-7.88-3.05A11.82,11.82,0,0,1,176.1,49.39Z"/><path id="path2700-6-5-4" class="cls-1" d="M205.26,59.39h-9.21V27.54h9.21V38.89h.13a35.72,35.72,0,0,1,1.35-5.84,9.57,9.57,0,0,1,1.9-3.48A6,6,0,0,1,211,28a9.07,9.07,0,0,1,3-.43h1.54V38h-3.48c-2.6,0-4.38.43-5.34,1.31s-1.45,2.49-1.45,4.85Z"/><path id="path2702-9-9-3" class="cls-1" d="M237.61,59.39V50.53h-.13q-1,5.22-3.71,7.52a9.75,9.75,0,0,1-6.66,2.29c-3.34,0-5.83-1-7.44-3.05s-2.43-4.85-2.43-8.46V27.54h9.21v18.7a6.65,6.65,0,0,0,1.28,4.26,5,5,0,0,0,4,1.58,5.31,5.31,0,0,0,5.84-5.84V27.54h9.12V59.39Z"/><path id="path2704-7-46-3" class="cls-1" d="M263.82,60.34a23.8,23.8,0,0,1-5.61-.59,13.93,13.93,0,0,1-4-1.51,10.1,10.1,0,0,1-2.75-2.36A11.37,11.37,0,0,1,249.71,53a15.87,15.87,0,0,1-.88-3.38l8.53-1.67a8.17,8.17,0,0,0,2.26,4.23A6.35,6.35,0,0,0,264,53.55c2.93,0,4.43-1,4.5-3a2.55,2.55,0,0,0-1.41-2.23,19.62,19.62,0,0,0-5.51-1.67q-6.57-1.38-9.25-3.74a8.06,8.06,0,0,1-2.69-6.4A8.59,8.59,0,0,1,253,29.28q3.38-2.59,9.94-2.59t9.84,2.49A11.52,11.52,0,0,1,277,36.36l-8.73,1.94a7.43,7.43,0,0,0-1.87-3.84,4.9,4.9,0,0,0-3.57-1.21,5.41,5.41,0,0,0-3.09.75,2.38,2.38,0,0,0-1.08,2.07,2.72,2.72,0,0,0,.43,1.6,4.79,4.79,0,0,0,2,1.28,24.33,24.33,0,0,0,4.59,1.22q6.53,1.28,9.16,3.74a8.24,8.24,0,0,1,2.62,6.26,9.05,9.05,0,0,1-3.38,7.51q-3.37,2.67-10.33,2.66Z"/><path id="path2706-2-4-1" class="cls-1" d="M282,49.39V35.21h-3.71V27.54H282v-8h9.12v8h8.4v7.67h-8.4V47.65a4.1,4.1,0,0,0,.82,2.85,3.9,3.9,0,0,0,2.89.89,24.16,24.16,0,0,0,4.16-.72l1,8.46a31.25,31.25,0,0,1-3.64.92,21.72,21.72,0,0,1-3.9.29q-5.25,0-7.88-3.05A11.77,11.77,0,0,1,282,49.39Z"/></g></g></svg>