<svg id="svg1681" xmlns="http://www.w3.org/2000/svg" viewBox="0 0 393.45 322.36"><defs><style>.cls-1{fill:#fff;}</style></defs><g id="layer1"><path id="path1927-7-5-9-8-2-7-6-3-3-4-5-3-2-2-0" class="cls-1" d="M112.06,45.08c-5.26,0-8.16,0-14,5.8L5.8,143.13C0,148.91,0,151.87,0,157.11v15.32c0,5.24,0,8.19,5.77,14l57.05,57.26,28-28L40.13,164.81l79.58-79.58L170.4,136.1l28-28-57-57.18c-5.9-5.89-8.75-5.82-14-5.83Z" transform="translate(0 0)"/><path id="path1931-4-9-5-1-0-2-97-3-8-9-0-1-4-7-55" class="cls-1" d="M323,78l-28,28,58.41,58.81L273.8,244.33l-58.4-58.81-28,28,64.68,65.12c5.86,5.86,8.74,5.83,14,5.84l15.28,0c5.26,0,8.22,0,14-5.8l92.26-92.25c5.78-5.78,5.78-8.72,5.79-14V157.14c0-5.23-.11-8.3-5.74-14Z" transform="translate(0 0)"/><g id="g2384"><path id="path2388" class="cls-1" d="M336,2l15.78,15.78a6.69,6.69,0,0,1,0,9.49L58.59,320.39a6.69,6.69,0,0,1-9.49,0L33.32,304.62a6.71,6.71,0,0,1,0-9.5L326.47,2A6.69,6.69,0,0,1,336,2Z" transform="translate(0 0)"/></g></g></svg>