<svg width="27" height="28" viewBox="0 0 27 28" fill="none" xmlns="http://www.w3.org/2000/svg">
<path d="M7.98075 21.11C9.71232 22.4561 11.8758 23.1236 14.0648 22.987C16.2538 22.8505 18.3176 21.9193 19.8684 20.3684C21.4193 18.8176 22.3505 16.7538 22.487 14.5648C22.6236 12.3758 21.9561 10.2123 20.61 8.48075L7.98075 21.11ZM6.39 19.5193L19.0193 6.89C17.2877 5.5439 15.1242 4.87643 12.9352 5.01298C10.7462 5.14953 8.68241 6.0807 7.13156 7.63156C5.5807 9.18241 4.64953 11.2462 4.51298 13.4352C4.37643 15.6242 5.0439 17.7877 6.39 19.5193ZM13.5 25.25C7.28663 25.25 2.25 20.2134 2.25 14C2.25 7.78663 7.28663 2.75 13.5 2.75C19.7134 2.75 24.75 7.78663 24.75 14C24.75 20.2134 19.7134 25.25 13.5 25.25Z" fill="#0F0F0F"/>
</svg>
